<?xml version="1.0" encoding="UTF-8"?>
<!DOCTYPE svg PUBLIC "-//W3C//DTD SVG 1.1//EN" "http://www.w3.org/Graphics/SVG/1.1/DTD/svg11.dtd">
<svg xmlns="http://www.w3.org/2000/svg" version="1.1" width="500px" height="500px" style="shape-rendering:geometricPrecision; text-rendering:geometricPrecision; image-rendering:optimizeQuality; fill-rule:evenodd; clip-rule:evenodd" xmlns:xlink="http://www.w3.org/1999/xlink">
<g><path style="opacity:1" fill="#3779de" d="M 421.5,159.5 C 407.035,166.294 393.035,173.96 379.5,182.5C 365.148,189.76 350.981,197.427 337,205.5C 323.007,197.422 308.841,189.755 294.5,182.5C 280.781,173.653 266.781,165.987 252.5,159.5C 238.278,166.614 224.278,174.281 210.5,182.5C 196.458,190.249 182.291,197.916 168,205.5C 154.2,197.478 140.367,189.811 126.5,182.5C 112.497,174.499 98.4968,166.499 84.5,158.5C 139.994,127.075 195.994,96.0752 252.5,65.5C 309.342,96.0838 365.675,127.417 421.5,159.5 Z"/></g>
<g><path style="opacity:1" fill="#f8e550" d="M 84.5,158.5 C 98.4968,166.499 112.497,174.499 126.5,182.5C 126.193,188.093 126.527,193.593 127.5,199C 141.058,206.274 154.391,213.774 167.5,221.5C 154.229,229.14 140.896,236.806 127.5,244.5C 126.893,244.376 126.56,244.043 126.5,243.5C 125.598,238.357 125.264,233.357 125.5,228.5C 111.586,220.96 97.7528,213.294 84,205.5C 83.172,189.661 83.3387,173.995 84.5,158.5 Z"/></g>
<g><path style="opacity:0.999" fill="#4fc3ec" d="M 252.5,159.5 C 252.5,174.833 252.5,190.167 252.5,205.5C 239.092,213.47 225.425,220.97 211.5,228C 210.527,233.407 210.193,238.907 210.5,244.5C 196.531,237.182 182.531,229.848 168.5,222.5C 168.5,222.167 168.5,221.833 168.5,221.5C 182.076,214.041 195.743,206.541 209.5,199C 210.473,193.593 210.807,188.093 210.5,182.5C 224.278,174.281 238.278,166.614 252.5,159.5 Z"/></g>
<g><path style="opacity:1" fill="#fbe750" d="M 294.5,182.5 C 294.193,188.093 294.527,193.593 295.5,199C 309.483,205.99 323.15,213.49 336.5,221.5C 322.817,229.676 308.817,237.343 294.5,244.5C 294.807,238.907 294.473,233.407 293.5,228C 279.743,220.459 266.076,212.959 252.5,205.5C 252.5,190.167 252.5,174.833 252.5,159.5C 266.781,165.987 280.781,173.653 294.5,182.5 Z"/></g>
<g><path style="opacity:0.998" fill="#4fc3ec" d="M 421.5,159.5 C 421.667,174.837 421.5,190.17 421,205.5C 407.549,213.141 394.049,220.641 380.5,228C 379.527,233.407 379.193,238.907 379.5,244.5C 365.437,237.137 351.437,229.803 337.5,222.5C 337.5,222.167 337.5,221.833 337.5,221.5C 350.787,213.519 364.454,206.019 378.5,199C 379.473,193.593 379.807,188.093 379.5,182.5C 393.035,173.96 407.035,166.294 421.5,159.5 Z"/></g>
<g><path style="opacity:1" fill="#73a2e9" d="M 126.5,182.5 C 140.367,189.811 154.2,197.478 168,205.5C 182.291,197.916 196.458,190.249 210.5,182.5C 210.807,188.093 210.473,193.593 209.5,199C 195.743,206.541 182.076,214.041 168.5,221.5C 168.167,221.5 167.833,221.5 167.5,221.5C 154.391,213.774 141.058,206.274 127.5,199C 126.527,193.593 126.193,188.093 126.5,182.5 Z"/></g>
<g><path style="opacity:1" fill="#73a2e9" d="M 294.5,182.5 C 308.841,189.755 323.007,197.422 337,205.5C 350.981,197.427 365.148,189.76 379.5,182.5C 379.807,188.093 379.473,193.593 378.5,199C 364.454,206.019 350.787,213.519 337.5,221.5C 337.167,221.5 336.833,221.5 336.5,221.5C 323.15,213.49 309.483,205.99 295.5,199C 294.527,193.593 294.193,188.093 294.5,182.5 Z"/></g>
<g><path style="opacity:1" fill="#f2e581" d="M 167.5,221.5 C 167.833,221.5 168.167,221.5 168.5,221.5C 168.5,221.833 168.5,222.167 168.5,222.5C 168.5,237.5 168.5,252.5 168.5,267.5C 168.5,267.833 168.5,268.167 168.5,268.5C 154.645,260.987 140.812,253.32 127,245.5C 126.5,260.83 126.333,276.163 126.5,291.5C 125.167,275.5 125.167,259.5 126.5,243.5C 126.56,244.043 126.893,244.376 127.5,244.5C 140.896,236.806 154.229,229.14 167.5,221.5 Z"/></g>
<g><path style="opacity:1" fill="#fcee83" d="M 336.5,221.5 C 336.833,221.5 337.167,221.5 337.5,221.5C 337.5,221.833 337.5,222.167 337.5,222.5C 337.5,237.5 337.5,252.5 337.5,267.5C 337.5,267.833 337.5,268.167 337.5,268.5C 322.981,261.075 308.647,253.409 294.5,245.5C 294.5,245.167 294.5,244.833 294.5,244.5C 308.817,237.343 322.817,229.676 336.5,221.5 Z"/></g>
<g><path style="opacity:1" fill="#3879df" d="M 168.5,222.5 C 182.531,229.848 196.531,237.182 210.5,244.5C 210.5,244.833 210.5,245.167 210.5,245.5C 196.742,253.248 182.742,260.582 168.5,267.5C 168.5,252.5 168.5,237.5 168.5,222.5 Z"/></g>
<g><path style="opacity:1" fill="#3879df" d="M 337.5,222.5 C 351.437,229.803 365.437,237.137 379.5,244.5C 379.5,244.833 379.5,245.167 379.5,245.5C 365.594,252.788 351.594,260.122 337.5,267.5C 337.5,252.5 337.5,237.5 337.5,222.5 Z"/></g>
<g><path style="opacity:1" fill="#fbe750" d="M 168.5,268.5 C 168.5,283.833 168.5,299.167 168.5,314.5C 154.015,307.673 140.015,300.006 126.5,291.5C 126.333,276.163 126.5,260.83 127,245.5C 140.812,253.32 154.645,260.987 168.5,268.5 Z"/></g>
<g><path style="opacity:0.998" fill="#4fc3ec" d="M 210.5,245.5 C 210.833,261.181 210.499,276.848 209.5,292.5C 195.97,300.098 182.303,307.431 168.5,314.5C 168.5,299.167 168.5,283.833 168.5,268.5C 168.5,268.167 168.5,267.833 168.5,267.5C 182.742,260.582 196.742,253.248 210.5,245.5 Z"/></g>
<g><path style="opacity:1" fill="#fbe750" d="M 294.5,245.5 C 308.647,253.409 322.981,261.075 337.5,268.5C 337.5,283.833 337.5,299.167 337.5,314.5C 323.042,307.437 308.708,300.104 294.5,292.5C 294.5,276.833 294.5,261.167 294.5,245.5 Z"/></g>
<g><path style="opacity:0.999" fill="#4fc3ec" d="M 379.5,245.5 C 379.833,261.181 379.499,276.848 378.5,292.5C 364.907,300.127 351.24,307.461 337.5,314.5C 337.5,299.167 337.5,283.833 337.5,268.5C 337.5,268.167 337.5,267.833 337.5,267.5C 351.594,260.122 365.594,252.788 379.5,245.5 Z"/></g>
<g><path style="opacity:0.999" fill="#3778db" d="M 328.5,341.5 C 332.167,341.5 335.833,341.5 339.5,341.5C 339.334,346.511 339.501,351.511 340,356.5C 345.968,352.206 351.635,352.539 357,357.5C 358.417,366.752 358.917,376.085 358.5,385.5C 354.833,385.5 351.167,385.5 347.5,385.5C 347.666,378.159 347.5,370.826 347,363.5C 344.501,362.202 342.167,362.536 340,364.5C 339.5,371.492 339.334,378.492 339.5,385.5C 335.833,385.5 332.167,385.5 328.5,385.5C 328.5,370.833 328.5,356.167 328.5,341.5 Z"/></g>
<g><path style="opacity:0.998" fill="#3777d8" d="M 154.5,343.5 C 162.554,343.394 168.054,347.061 171,354.5C 175.252,367.056 172.419,377.556 162.5,386C 165.309,387.956 168.309,388.456 171.5,387.5C 173.371,390.23 174.038,393.064 173.5,396C 167.842,398.204 162.509,397.537 157.5,394C 154.491,391.323 151.824,388.323 149.5,385C 144.853,382.894 141.686,379.394 140,374.5C 139.116,367.418 139.449,360.418 141,353.5C 144.001,347.98 148.501,344.647 154.5,343.5 Z M 153.5,353.5 C 155.722,353.178 157.556,353.845 159,355.5C 161.907,361.339 162.24,367.339 160,373.5C 156.613,378.836 153.613,378.503 151,372.5C 149.759,365.806 150.592,359.472 153.5,353.5 Z"/></g>
<g><path style="opacity:1" fill="#3672ce" d="M 199.5,353.5 C 202.978,353.184 206.312,353.684 209.5,355C 208.287,357.687 207.62,360.52 207.5,363.5C 201.763,361.482 196.93,362.815 193,367.5C 192.501,373.491 192.334,379.491 192.5,385.5C 188.5,385.5 184.5,385.5 180.5,385.5C 180.5,375.167 180.5,364.833 180.5,354.5C 183.518,354.335 186.518,354.502 189.5,355C 190.09,356.509 190.756,358.009 191.5,359.5C 193.517,356.506 196.184,354.506 199.5,353.5 Z"/></g>
<g><path style="opacity:0.995" fill="#3779de" d="M 269.5,353.5 C 274.447,352.628 278.613,353.961 282,357.5C 283.417,366.752 283.917,376.085 283.5,385.5C 279.833,385.5 276.167,385.5 272.5,385.5C 272.666,378.159 272.5,370.826 272,363.5C 269.501,362.202 267.167,362.536 265,364.5C 264.5,371.492 264.334,378.492 264.5,385.5C 260.833,385.5 257.167,385.5 253.5,385.5C 253.5,375.167 253.5,364.833 253.5,354.5C 256.5,354.5 259.5,354.5 262.5,354.5C 262.281,355.675 262.614,356.675 263.5,357.5C 265.29,355.684 267.29,354.351 269.5,353.5 Z"/></g>
<g><path style="opacity:0.998" fill="#3776d7" d="M 303.5,353.5 C 307.182,353.335 310.848,353.501 314.5,354C 316.997,354.412 318.997,355.578 320.5,357.5C 319.197,359.968 317.697,362.301 316,364.5C 305.462,359.872 301.295,363.205 303.5,374.5C 307.891,378.365 312.391,378.365 317,374.5C 318.5,376.833 320,379.167 321.5,381.5C 311.022,388.882 301.522,387.882 293,378.5C 288.306,366.568 291.806,358.235 303.5,353.5 Z"/></g>
<g><path style="opacity:0.999" fill="#3777d9" d="M 215.5,354.5 C 219.167,354.5 222.833,354.5 226.5,354.5C 226.334,361.508 226.5,368.508 227,375.5C 229.476,377.815 231.809,377.482 234,374.5C 234.5,367.842 234.666,361.175 234.5,354.5C 238.167,354.5 241.833,354.5 245.5,354.5C 245.5,364.833 245.5,375.167 245.5,385.5C 242.5,385.5 239.5,385.5 236.5,385.5C 236.5,384.5 236.5,383.5 236.5,382.5C 232.875,384.219 229.042,385.552 225,386.5C 219.904,386.128 216.904,383.461 216,378.5C 215.5,370.507 215.334,362.507 215.5,354.5 Z"/></g>
</svg>
